<svg width="49" height="45" viewBox="0 0 49 45" fill="none" xmlns="http://www.w3.org/2000/svg">
<path d="M17.5601 4.5H31.0601C31.4726 4.5 31.8101 4.8375 31.8101 5.25V9H16.8101V5.25C16.8101 4.8375 17.1476 4.5 17.5601 4.5ZM12.3101 5.25V9H6.31006C3.00068 9 0.310059 11.6906 0.310059 15V24H18.3101H30.3101H48.3101V15C48.3101 11.6906 45.6194 9 42.3101 9H36.3101V5.25C36.3101 2.35313 33.9569 0 31.0601 0H17.5601C14.6632 0 12.3101 2.35313 12.3101 5.25ZM48.3101 27H30.3101V30C30.3101 31.6594 28.9694 33 27.3101 33H21.3101C19.6507 33 18.3101 31.6594 18.3101 30V27H0.310059V39C0.310059 42.3094 3.00068 45 6.31006 45H42.3101C45.6194 45 48.3101 42.3094 48.3101 39V27Z" fill="#6682A9"/>
</svg>
