<svg width="151" height="34" viewBox="0 0 151 34" fill="none" xmlns="http://www.w3.org/2000/svg">
<g clip-path="url(#clip0_1_336)">
<g clip-path="url(#clip1_1_336)">
<path d="M150.435 30.516C150.435 30.9047 150.359 31.2602 150.215 31.5888C150.071 31.919 149.886 32.2065 149.649 32.4514C149.405 32.6963 149.126 32.8907 148.798 33.0249C148.46 33.1608 148.114 33.2288 147.742 33.2288C147.363 33.2288 147.009 33.1608 146.654 33.0249C146.308 32.8907 146.012 32.7042 145.752 32.4593C145.499 32.2144 145.295 31.9269 145.143 31.5983C144.992 31.2681 144.916 30.9047 144.916 30.516V21.106C144.916 20.9717 144.933 20.869 144.967 20.8026C144.933 19.9747 144.764 19.1974 144.461 18.4706C144.156 17.7518 143.744 17.1182 143.221 16.5779C142.696 16.0376 142.089 15.6062 141.39 15.295C140.688 14.9822 139.912 14.8305 139.069 14.8305C138.208 14.8305 137.414 14.9822 136.689 15.295C135.963 15.6062 135.346 16.0455 134.833 16.6032C134.318 17.1609 133.912 17.8118 133.618 18.5639C133.322 19.3159 133.169 20.1185 133.169 20.9796V30.516C133.169 30.9047 133.103 31.2681 132.967 31.5983C132.833 31.9269 132.638 32.2144 132.393 32.4593C132.149 32.7042 131.863 32.8907 131.542 33.0249C131.221 33.1608 130.866 33.2288 130.479 33.2288C130.098 33.2288 129.744 33.1608 129.406 33.0249C129.069 32.8907 128.766 32.6963 128.504 32.4514C128.241 32.2065 128.031 31.919 127.88 31.5888C127.728 31.2602 127.652 30.9047 127.652 30.516V20.9622C127.652 19.3412 127.946 17.8197 128.529 16.4088C129.11 14.998 129.913 13.7656 130.934 12.7102C131.954 11.6533 133.161 10.8254 134.553 10.2171C135.955 9.60883 137.448 9.30548 139.059 9.30548C140.68 9.30548 142.183 9.60883 143.567 10.2171C144.949 10.8254 146.148 11.6533 147.169 12.7102C148.182 13.7656 148.975 14.998 149.558 16.4088C150.139 17.8197 150.435 19.3412 150.435 20.9622V30.516Z" fill="#011C47"/>
<path d="M82.0189 9.29602H94.5793C95.0391 9.30234 95.3993 9.37344 95.8196 9.54881C96.8402 9.99751 97.4595 10.9123 97.4595 11.9313C97.458 12.4527 97.2873 12.963 96.965 13.3944L83.068 32.0549C82.1785 33.2493 80.3774 33.5637 79.0676 32.7516C77.7563 31.9411 77.4118 30.2996 78.3013 29.1052L88.8474 14.9443H82.1121C80.3726 14.9443 78.9507 13.6772 78.9507 12.1273C78.9507 11.1983 79.4626 10.3704 80.2462 9.8569C80.736 9.50615 81.3522 9.29602 82.0189 9.29602ZM89.6436 27.5395H95.8701C97.4595 27.5395 98.7614 28.8176 98.7614 30.3786C98.7614 31.9411 97.4595 33.2193 95.8701 33.2193H89.6436C88.0527 33.2193 86.7524 31.9411 86.7524 30.3786C86.7524 28.8176 88.0527 27.5395 89.6436 27.5395Z" fill="#011C47"/>
<path fill-rule="evenodd" clip-rule="evenodd" d="M112.033 9.30866C112.312 9.29602 114.077 9.30076 114.915 9.53301C116.137 9.77474 117.084 10.8349 117.141 12.1478C117.209 13.6851 116.028 14.9838 114.505 15.0501C114.392 15.0549 114.279 15.0533 114.169 15.0454C114.169 15.0628 112.507 14.8874 112.276 14.8969C108.764 15.0501 106.04 18.0251 106.192 21.5405C106.345 25.0542 109.317 27.7812 112.831 27.6279C116.344 27.4747 119.068 24.4997 118.915 20.9843C118.904 20.741 118.664 19.2859 118.163 18.2305C118 17.8419 117.836 17.4248 117.807 16.9871C117.668 14.8432 119.354 13.9505 120.454 13.9363C121.553 13.9236 122.34 14.4813 122.871 15.2097C124.361 17.5638 124.486 20.474 124.5 20.741C124.86 27.4131 119.672 32.9286 113.074 33.2161C106.476 33.5037 100.894 28.3847 100.607 21.7838C100.319 15.1813 105.435 9.59621 112.033 9.30866Z" fill="#011C47"/>
<path d="M59.2711 21.2403C59.2711 22.8597 60.009 24.457 61.0928 25.6372C61.6521 26.2471 62.3046 26.7416 63.055 27.1255C63.8071 27.5094 64.6176 27.7101 65.4866 27.7275C66.3887 27.7275 67.1913 27.6106 67.8833 27.3846C68.5769 27.1587 69.2705 26.7574 69.972 26.1728C70.3069 25.8884 70.6829 25.6214 71.0921 25.3781C71.5013 25.1364 71.9437 25.0195 72.4288 25.0195C72.7132 25.0195 73.0133 25.0779 73.3309 25.2028C73.6485 25.3276 73.9739 25.5377 74.3073 25.8221C74.8824 26.3277 75.1684 27.0228 75.151 27.7859C75.1336 28.6312 74.756 29.3548 74.1825 29.9583C73.1476 31.0121 71.9184 31.8148 70.4902 32.3661C69.0619 32.9175 67.5578 33.194 65.9874 33.194C64.3174 33.194 62.747 32.8844 61.276 32.2745C59.8067 31.6647 58.5191 30.8289 57.4084 29.7577C56.2977 28.6881 55.4287 27.4257 54.7936 25.9801C54.1332 24.4934 53.833 22.8882 53.833 21.3082V21.2577C53.833 19.5861 54.1506 18.0141 54.7936 16.5511C55.4287 15.088 56.2977 13.8178 57.4084 12.7403C58.5191 11.6612 59.8067 10.8175 61.276 10.1982C62.747 9.58042 64.3174 9.27075 65.9874 9.27075C67.5578 9.27075 69.0619 9.53776 70.4902 10.0655C71.9184 10.5916 73.1476 11.3863 74.1825 12.448C74.7528 13.0183 75.1589 13.8036 75.1763 14.6204C75.1936 15.393 74.8571 16.1071 74.2836 16.619C73.9487 16.9018 73.6311 17.1025 73.3309 17.2194C73.0291 17.3379 72.7369 17.3963 72.454 17.3963C71.969 17.3963 71.5266 17.2699 71.1174 17.0282C70.7082 16.7849 70.3227 16.5258 69.972 16.2414C69.2705 15.7074 68.5769 15.3235 67.8928 15.088C67.2071 14.8542 66.4882 14.7373 65.7378 14.7373C64.8846 14.7373 64.0662 14.9127 63.281 15.265C61.7121 15.9649 60.5224 17.202 59.8225 18.7661C59.4718 19.5529 59.2711 20.3966 59.2711 21.2403Z" fill="#1BA3A3"/>
<path fill-rule="evenodd" clip-rule="evenodd" d="M38.7194 9.27545C38.9991 9.26439 40.7623 9.26913 41.5997 9.50138C42.8225 9.74153 43.7689 10.8032 43.8274 12.1146C43.8937 13.6519 42.7135 14.9521 41.1905 15.0185C41.0767 15.0232 40.9645 15.0217 40.8539 15.0122C40.8555 15.0311 39.1934 14.8542 38.9628 14.8652C35.449 15.0185 32.7252 17.9919 32.8785 21.5073C33.0317 25.0226 36.0035 27.748 39.5157 27.5947C43.0295 27.4415 45.7533 24.468 45.6 20.9527C45.589 20.7078 45.3488 19.2543 44.8496 18.1973C44.6853 17.8102 44.5209 17.3915 44.4925 16.9539C44.3535 14.8099 46.0408 13.9173 47.1405 13.9046C48.2401 13.8904 49.0269 14.4497 49.5562 15.1765C51.046 17.5322 51.1709 20.4408 51.1867 20.7094C51.5453 27.3799 46.3584 32.8954 39.759 33.1829C33.1613 33.4705 27.5794 28.3531 27.2918 21.7506C27.0043 15.148 32.1201 9.563 38.7194 9.27545Z" fill="#1BA3A3"/>
<path d="M24.6518 21.1297C24.6518 22.8028 24.3326 24.3764 23.6959 25.8379C22.4272 28.7528 20.19 31.0137 17.2925 32.2808C15.8342 32.9159 14.2922 33.2288 12.6411 33.2288C10.9822 33.2288 9.42283 32.9159 7.96455 32.2808C5.06538 31.02 2.83768 28.767 1.59586 25.8379C0.974949 24.3764 0.665283 22.8028 0.665283 21.1297C0.665283 19.4723 0.974949 17.9082 1.59586 16.4373C2.0888 15.265 2.73025 14.2096 3.50441 13.2837C5.28025 11.1366 7.90926 9.58355 10.3629 9.30706C11.9318 9.13011 13.4896 9.10483 15.0016 9.62621C15.7899 9.89954 16.2876 10.2708 16.6984 10.9486C17.0681 11.5569 17.0728 12.2994 16.8801 13.0799C16.7821 13.4702 16.6273 13.8067 16.4093 14.099C15.9653 14.693 15.3855 15.0327 14.6919 15.1338C14.3143 15.1891 13.9762 15.1544 13.6081 15.0454C12.7517 14.7926 11.4546 14.8068 10.5983 14.9837C9.62348 15.1844 9.08314 15.6173 8.35006 16.1892C7.61855 16.8386 7.04345 17.6491 6.65005 18.5923C6.31353 19.387 6.14606 20.2323 6.14606 21.1297C6.14606 22.0429 6.31353 22.896 6.65005 23.6907C7.32152 25.3023 8.51437 26.4919 10.1022 27.1824C10.8906 27.53 11.7453 27.699 12.6411 27.699C13.5291 27.699 14.3759 27.53 15.1643 27.1824C16.7553 26.4904 17.9702 25.3007 18.6591 23.6907C18.9719 22.9671 19.1394 22.193 19.1662 21.3698H19.1773V15.6252V10.3293H19.1694V3.62722C19.1694 3.22118 19.2373 2.8499 19.3622 2.50231C19.6181 1.80082 20.0731 1.30315 20.7462 0.98874C21.0811 0.837067 21.4413 0.76123 21.8442 0.76123C22.2376 0.76123 22.5979 0.837067 22.9328 0.98874C23.6201 1.30157 24.1225 1.80714 24.4242 2.50231C24.5759 2.8499 24.6518 3.22118 24.6518 3.62722V21.1297Z" fill="#1BA3A3"/>
</g>
</g>
<defs>
<clipPath id="clip0_1_336">
<rect width="150" height="32.45" fill="white" transform="translate(0.550049 0.77002)"/>
</clipPath>
<clipPath id="clip1_1_336">
<rect width="150" height="32.4675" fill="white" transform="translate(0.550049 0.76123)"/>
</clipPath>
</defs>
</svg>
