<svg width="151" height="33" viewBox="0 0 151 33" fill="none" xmlns="http://www.w3.org/2000/svg">
<g clip-path="url(#clip0_1_349)">
<g clip-path="url(#clip1_1_349)">
<path d="M5.2795 9.23044V8.35869C5.2795 7.23562 5.4994 6.16752 5.93135 5.16226C6.79525 3.14387 8.28744 1.62812 10.298 0.748512C11.3032 0.308708 12.3713 0.0888062 13.5101 0.0888062C14.3033 0.0888062 14.9787 0.363683 15.5049 0.897731C16.039 1.43178 16.3139 2.09934 16.3139 2.89255C16.3139 3.6465 16.039 4.32977 15.4971 4.84811C15.2458 5.08372 14.9473 5.27221 14.6096 5.41357C14.2719 5.55494 13.9028 5.63347 13.518 5.63347H13.3923C13.0153 5.63347 12.6776 5.73557 12.3635 5.9005C11.3975 6.39528 10.8242 7.36913 10.8242 8.44508V9.23044H12.6933C13.0546 9.23829 13.3923 9.31683 13.7065 9.45034C14.0442 9.59171 14.3505 9.78805 14.5939 10.0394C14.8452 10.2907 15.0416 10.5813 15.1829 10.9111C15.3322 11.2488 15.395 11.6101 15.395 12.0028C15.395 12.4033 15.3322 12.7724 15.1829 13.118C15.0416 13.4557 14.8452 13.7541 14.5939 14.0055C14.3505 14.2489 14.0442 14.4453 13.7065 14.5945C13.3609 14.7358 12.9996 14.8144 12.6069 14.8144H10.8242V17.8852V30.1054C10.8242 30.8437 10.5336 31.5662 10.0074 32.0845C9.48905 32.6029 8.80578 32.9013 8.06754 32.9013C7.3293 32.9013 6.61462 32.6029 6.08842 32.0845C5.56223 31.5662 5.2795 30.8437 5.2795 30.1054L5.30306 18.003V17.2333V16.8013V15.8511V14.8222H5.16955V14.8144H3.84228C3.46531 14.8144 3.10404 14.7358 2.76633 14.5945C2.42077 14.4453 2.12234 14.2489 1.86317 13.9976C1.61185 13.7306 1.41551 13.4321 1.26629 13.0866C1.12492 12.7489 1.04639 12.3876 1.04639 12.0028C1.04639 11.6101 1.12492 11.2488 1.26629 10.9111C1.41551 10.5813 1.61185 10.2907 1.86317 10.0394C2.12234 9.78805 2.42077 9.59171 2.76633 9.45034C3.08048 9.31683 3.41033 9.23829 3.75589 9.23044H5.2795Z" fill="white"/>
<path fill-rule="evenodd" clip-rule="evenodd" d="M29.9399 9.23042C30.2226 9.22256 31.9661 9.22256 32.7908 9.45032C34.0002 9.69378 34.9427 10.7383 34.9976 12.042C35.0605 13.5578 33.8981 14.8458 32.3902 14.9165C32.2724 14.9165 32.1625 14.9165 32.0525 14.9086C32.0525 14.9243 30.4111 14.7515 30.1834 14.7594C26.7042 14.9165 24.0104 17.8537 24.1596 21.3329C24.3167 24.812 27.254 27.5137 30.7331 27.3566C34.2044 27.2074 36.9061 24.2623 36.749 20.7831C36.7412 20.5475 36.5055 19.1024 36.0108 18.0579C35.8458 17.6731 35.6809 17.2647 35.6574 16.8327C35.516 14.7044 37.1888 13.8248 38.2726 13.8091C39.3643 13.8012 40.1418 14.351 40.668 15.0735C42.1445 17.3982 42.2623 20.2805 42.278 20.5475C42.6392 27.1446 37.503 32.6028 30.9687 32.8934C24.4424 33.1762 18.9213 28.1106 18.6307 21.5763C18.3479 15.0421 23.4135 9.51315 29.9399 9.23042Z" fill="white"/>
<path d="M96.1461 20.9245C96.1461 22.5816 95.8319 24.1445 95.2036 25.5896C93.947 28.4719 91.7323 30.7102 88.8657 31.9667C87.4207 32.595 85.897 32.9013 84.2635 32.9013C82.6221 32.9013 81.0749 32.595 79.6298 31.9667C76.7633 30.718 74.5564 28.4876 73.3312 25.5896C72.7186 24.1445 72.4124 22.5816 72.4124 20.9245C72.4124 19.291 72.7186 17.7438 73.3312 16.283C73.8182 15.1285 74.4543 14.084 75.2161 13.1651C76.9753 11.0368 79.5749 9.50534 82.0095 9.23046C83.5567 9.04983 85.096 9.02627 86.596 9.54461C87.3735 9.81163 87.8683 10.1808 88.2767 10.8562C88.6458 11.453 88.6458 12.1913 88.4573 12.9609C88.3631 13.3458 88.206 13.6835 87.9861 13.9741C87.5542 14.5631 86.973 14.8929 86.2897 14.995C85.9128 15.05 85.5829 15.0186 85.2216 14.9086C84.3734 14.6573 83.0855 14.673 82.2373 14.8458C81.2713 15.0422 80.7372 15.4741 80.0147 16.0396C79.2921 16.6836 78.7188 17.4846 78.334 18.4192C77.9963 19.2046 77.8314 20.0449 77.8314 20.9245C77.8314 21.8356 77.9963 22.6759 78.334 23.4613C78.9937 25.0555 80.1796 26.2336 81.7503 26.9169C82.5278 27.2624 83.376 27.4273 84.2635 27.4273C85.1431 27.4273 85.9756 27.2624 86.7609 26.9169C88.3317 26.2336 89.5333 25.0555 90.2166 23.4613C90.5228 22.7466 90.6878 21.9848 90.7192 21.168L90.727 15.482V10.2436L90.7192 3.60726C90.7192 3.20672 90.7899 2.8376 90.9155 2.49204C91.1668 1.80092 91.6145 1.30614 92.2821 0.99985C92.6119 0.850631 92.9732 0.772095 93.3659 0.772095C93.7585 0.772095 94.112 0.850631 94.4418 0.99985C95.1251 1.30614 95.6199 1.80877 95.9183 2.49204C96.0675 2.8376 96.1461 3.20672 96.1461 3.60726V20.9245Z" fill="white"/>
<path fill-rule="evenodd" clip-rule="evenodd" d="M56.8386 9.23042C57.1135 9.22256 58.857 9.22256 59.6895 9.45032C60.8989 9.69378 61.8335 10.7383 61.8885 12.042C61.9592 13.5578 60.789 14.8458 59.2811 14.9165C59.1711 14.9165 59.0612 14.9165 58.9512 14.9086C58.9512 14.9243 57.302 14.7515 57.0742 14.7594C53.6029 14.9165 50.9013 17.8537 51.0583 21.3329C51.2075 24.812 54.1448 27.5137 57.624 27.3566C61.1031 27.2074 63.7969 24.2623 63.6477 20.7831C63.632 20.5475 63.3964 19.1024 62.9016 18.0579C62.7367 17.6731 62.5796 17.2647 62.5482 16.8327C62.4147 14.7044 64.0797 13.8248 65.1713 13.8091C66.2551 13.8012 67.0326 14.351 67.5588 15.0735C69.0353 17.3982 69.161 20.2805 69.1767 20.5475C69.5301 27.1446 64.3938 32.6028 57.8674 32.8934C51.3332 33.1762 45.8121 28.1106 45.5294 21.5763C45.2466 15.0421 50.3044 9.51315 56.8386 9.23042Z" fill="white"/>
<path fill-rule="evenodd" clip-rule="evenodd" d="M109.458 9.34037C115.874 8.38223 121.851 12.7646 122.896 19.1417C122.958 19.3538 122.99 19.5737 122.99 19.8093C122.99 21.1208 121.898 22.1968 120.555 22.1968H109.458C108.123 22.1968 107.023 21.1208 107.023 19.8093C107.023 18.4899 108.123 17.4139 109.458 17.4139H116.361C115.034 15.5369 112.709 14.4531 110.275 14.8144C106.835 15.3327 104.455 18.537 104.974 21.9769C105.484 25.4246 108.696 27.7964 112.136 27.2781C112.38 27.2467 113.785 26.854 114.775 26.2571C115.136 26.0529 115.529 25.8487 115.961 25.778C118.058 25.4168 119.11 26.9875 119.236 28.0634C119.361 29.1472 118.898 29.9797 118.231 30.5766C116.071 32.2808 113.22 32.7128 112.961 32.7521C106.426 33.7966 100.466 29.2651 99.4996 22.8015C98.5336 16.338 102.987 10.3142 109.458 9.34037Z" fill="white"/>
<path fill-rule="evenodd" clip-rule="evenodd" d="M136.302 9.34037C142.718 8.38223 148.695 12.7646 149.739 19.1417C149.794 19.3538 149.834 19.5737 149.834 19.8093C149.834 21.1208 148.734 22.1968 147.399 22.1968H136.302C134.959 22.1968 133.867 21.1208 133.867 19.8093C133.867 18.4899 134.959 17.4139 136.302 17.4139H143.205C141.878 15.5369 139.553 14.4531 137.119 14.8144C133.671 15.3327 131.299 18.537 131.817 21.9769C132.328 25.4246 135.54 27.7964 138.98 27.2781C139.223 27.2467 140.629 26.854 141.619 26.2571C141.98 26.0529 142.373 25.8487 142.805 25.778C144.902 25.4168 145.954 26.9875 146.08 28.0634C146.205 29.1472 145.734 29.9797 145.074 30.5766C142.915 32.2808 140.064 32.7128 139.797 32.7521C133.27 33.7966 127.309 29.2651 126.336 22.8015C125.37 16.338 129.83 10.3142 136.302 9.34037Z" fill="white"/>
</g>
</g>
<defs>
<clipPath id="clip0_1_349">
<rect width="150" height="32.81" fill="white" transform="translate(0.439941 0.0900269)"/>
</clipPath>
<clipPath id="clip1_1_349">
<rect width="150" height="32.8125" fill="white" transform="translate(0.439941 0.0888062)"/>
</clipPath>
</defs>
</svg>
